<svg width="18" height="18" viewBox="0 0 18 18" fill="none" xmlns="http://www.w3.org/2000/svg">
<path d="M7.85862 1.71245C8.21784 0.606877 9.78193 0.606877 10.1412 1.71245L11.4246 5.66261C11.5853 6.15703 12.046 6.49179 12.5659 6.49179H16.7193C17.8818 6.49179 18.3651 7.97932 17.4247 8.66261L14.0645 11.1039C13.6439 11.4095 13.4679 11.9512 13.6286 12.4456L14.912 16.3957C15.2713 17.5013 14.0059 18.4207 13.0654 17.7374L9.70523 15.296C9.28464 14.9905 8.71513 14.9905 8.29454 15.296L4.93434 17.7374C3.99388 18.4207 2.72851 17.5013 3.08773 16.3957L4.37121 12.4456C4.53186 11.9512 4.35587 11.4095 3.93529 11.1039L0.575083 8.66261C-0.365374 7.97932 0.117957 6.49179 1.28043 6.49179H5.43387C5.95374 6.49179 6.41448 6.15703 6.57513 5.66261L7.85862 1.71245Z" fill="#FFC046"/>
</svg>
